<svg xmlns="http://www.w3.org/2000/svg" width="29.475" height="29.468" viewBox="0 0 29.475 29.468">
  <path id="Icon_awesome-instagram" data-name="Icon awesome-instagram" d="M14.735,9.417a7.555,7.555,0,1,0,7.555,7.555A7.543,7.543,0,0,0,14.735,9.417Zm0,12.467a4.912,4.912,0,1,1,4.912-4.912,4.921,4.921,0,0,1-4.912,4.912ZM24.362,9.107A1.762,1.762,0,1,1,22.6,7.345,1.758,1.758,0,0,1,24.362,9.107Zm5,1.789a8.721,8.721,0,0,0-2.38-6.174,8.778,8.778,0,0,0-6.174-2.38c-2.433-.138-9.725-.138-12.158,0A8.766,8.766,0,0,0,2.479,4.715,8.749,8.749,0,0,0,.1,10.889C-.04,13.322-.04,20.615.1,23.048a8.721,8.721,0,0,0,2.38,6.174A8.789,8.789,0,0,0,8.653,31.6c2.433.138,9.725.138,12.158,0a8.721,8.721,0,0,0,6.174-2.38,8.778,8.778,0,0,0,2.38-6.174c.138-2.433.138-9.719,0-12.152ZM26.223,25.658a4.973,4.973,0,0,1-2.8,2.8c-1.94.769-6.543.592-8.686.592s-6.753.171-8.686-.592a4.973,4.973,0,0,1-2.8-2.8c-.769-1.94-.592-6.543-.592-8.686s-.171-6.753.592-8.686a4.973,4.973,0,0,1,2.8-2.8c1.94-.769,6.543-.592,8.686-.592s6.753-.171,8.686.592a4.973,4.973,0,0,1,2.8,2.8c.769,1.94.592,6.543.592,8.686S26.992,23.725,26.223,25.658Z" transform="translate(0.005 -2.238)" fill="#000"/>
</svg>
