<svg width="30" height="32" viewBox="0 0 30 32" fill="none" xmlns="http://www.w3.org/2000/svg">
<path fill-rule="evenodd" clip-rule="evenodd" d="M18.8 27.9875L18.815 27.9963C21.55 29.7375 25.1275 29.3452 27.42 27.0525L28.3875 26.085C29.2873 25.1841 29.2873 23.7247 28.3875 22.8238L24.3113 18.75C23.4104 17.8503 21.9509 17.8503 21.05 18.75C20.6179 19.1827 20.0315 19.4258 19.42 19.4258C18.8085 19.4258 18.2221 19.1827 17.79 18.75L11.2675 12.2263C10.3677 11.3254 10.3677 9.86592 11.2675 8.96502C11.7002 8.53291 11.9433 7.94651 11.9433 7.33502C11.9433 6.72354 11.7002 6.13714 11.2675 5.70502L7.19251 1.62502C6.29161 0.725253 4.83216 0.725253 3.93126 1.62502L2.96376 2.59252C0.671617 4.8852 0.278809 8.46204 2.01876 11.1975L2.02876 11.2125C6.49553 17.8248 12.1887 23.5193 18.8 27.9875Z" stroke="#FAFCF7" stroke-width="1.5" stroke-linecap="round" stroke-linejoin="round"/>
</svg>
