<svg width="30" height="30" viewBox="0 0 30 30" fill="none" xmlns="http://www.w3.org/2000/svg">
<path d="M15 15C17.5888 15 19.6875 12.9013 19.6875 10.3125C19.6875 7.72367 17.5888 5.625 15 5.625C12.4112 5.625 10.3125 7.72367 10.3125 10.3125C10.3125 12.9013 12.4112 15 15 15Z" stroke="#FAFCF7" stroke-width="1.5" stroke-linecap="round" stroke-linejoin="round"/>
<path fill-rule="evenodd" clip-rule="evenodd" d="M15 0.9375C20.1777 0.9375 24.375 5.13483 24.375 10.3125C24.375 14.5713 18.0325 25.25 15.7812 28.6438C15.6076 28.9056 15.3142 29.063 15 29.063C14.6858 29.063 14.3924 28.9056 14.2188 28.6438C11.9675 25.25 5.625 14.5713 5.625 10.3125C5.625 5.13483 9.82233 0.9375 15 0.9375Z" stroke="#FAFCF7" stroke-width="1.5" stroke-linecap="round" stroke-linejoin="round"/>
</svg>
