<svg width="105" height="24" viewBox="0 0 105 24" fill="none" xmlns="http://www.w3.org/2000/svg">
<path fill-rule="evenodd" clip-rule="evenodd" d="M74.9024 0C75.2721 0 75.7892 0.026 75.9986 0.053C76.4917 0.114 76.8995 0.514 76.8995 1.016V2.43H76.1299C74.248 2.43 73.1728 2.666 72.2579 3.325C71.1606 4.116 71.2317 5.809 71.2317 6.279H77.3595C77.9126 6.279 78.3706 6.71 78.3806 7.24L78.3816 19.617H74.6949V8.652H71.365V19.617H67.6783V8.651H65.4337L59.1807 23.334C59.0724 23.572 58.9452 23.745 58.7999 23.85C58.7057 23.919 58.5032 24 58.0784 24H55.3397L57.9 18.634L52.4707 6.279H55.7585C56.2115 6.279 56.6003 6.569 56.7316 6.965L59.6777 15.021L62.5406 6.92C62.6859 6.548 63.0627 6.279 63.4986 6.279H67.6783C67.6783 5.192 67.6783 3.263 69.3799 1.724C71.0804 0.185 73.6337 0 74.9024 0ZM99.0055 6.0403C99.8904 6.0403 100.71 6.1783 101.443 6.4523C102.17 6.7233 102.803 7.1233 103.326 7.6403C103.848 8.1563 104.261 8.8003 104.556 9.5533C104.851 10.3093 105 11.1803 105 12.1433C105 12.4423 104.988 12.6883 104.962 12.8723C104.94 13.0343 104.902 13.1623 104.848 13.2503C104.803 13.3233 104.747 13.3693 104.674 13.3973C104.58 13.4313 104.41 13.4493 104.293 13.4493H96.0674C96.0674 14.6343 96.6025 15.7973 97.2108 16.3533C97.8201 16.9093 98.5315 17.1913 99.5657 17.1913C101.062 17.1913 102.331 16.3473 102.586 16.2213C102.76 16.1343 102.943 16.0393 103.194 16.0413C103.491 16.0433 103.772 16.1643 103.965 16.3763C103.999 16.4173 104.528 17.0743 104.937 17.5813C104.537 18.0303 104.103 18.4023 103.645 18.6863C103.169 18.9813 102.673 19.2163 102.171 19.3823C101.667 19.5503 101.156 19.6683 100.652 19.7323C100.143 19.7973 99.6519 19.8313 99.1919 19.8313C98.254 19.8313 97.3611 19.6763 96.5404 19.3723C95.7247 19.0693 95.0012 18.6133 94.3909 18.0173C93.7797 17.4203 93.2896 16.6663 92.9329 15.7763C92.5761 14.8833 92.3958 13.8273 92.3958 12.6353C92.3958 11.7433 92.5501 10.8873 92.8547 10.0913C93.1584 9.2973 93.6003 8.5923 94.1695 7.9953C94.7366 7.3983 95.4361 6.9183 96.2448 6.5673C97.0535 6.2173 97.9824 6.0403 99.0055 6.0403ZM33.0347 6.0403C33.9196 6.0403 34.7403 6.1783 35.4728 6.4523C36.1993 6.7233 36.8337 7.1233 37.3547 7.6403C37.8768 8.1563 38.2907 8.8003 38.5853 9.5533C38.8809 10.3093 39.0302 11.1803 39.0302 12.1433C39.0302 12.4423 39.0172 12.6883 38.9921 12.8723C38.9701 13.0343 38.931 13.1623 38.8769 13.2503C38.8318 13.3233 38.7767 13.3693 38.7035 13.3973C38.6103 13.4313 38.44 13.4493 38.3217 13.4493H30.0976C30.0976 14.6343 30.6317 15.7973 31.24 16.3533C31.8493 16.9093 32.5618 17.1913 33.5959 17.1913C35.091 17.1913 36.3617 16.3473 36.6152 16.2213C36.7896 16.1343 36.9729 16.0393 37.2235 16.0413C37.5211 16.0433 37.8027 16.1643 37.9941 16.3763C38.0191 16.4056 38.2962 16.7492 38.6012 17.1279L38.7857 17.3571C38.8471 17.4334 38.9078 17.5089 38.9661 17.5813C38.5673 18.0303 38.1324 18.4023 37.6754 18.6863C37.1984 18.9813 36.7024 19.2163 36.2013 19.3823C35.6963 19.5503 35.1852 19.6683 34.6822 19.7323C34.1731 19.7973 33.6821 19.8313 33.2221 19.8313C32.2832 19.8313 31.3913 19.6763 30.5706 19.3723C29.7539 19.0693 29.0304 18.6133 28.4201 18.0173C27.8099 17.4203 27.3188 16.6663 26.9631 15.7763C26.6064 14.8833 26.425 13.8273 26.425 12.6353C26.425 11.7433 26.5803 10.8873 26.8849 10.0913C27.1886 9.2973 27.6305 8.5923 28.1987 7.9953C28.7669 7.3983 29.4653 6.9183 30.275 6.5673C31.0837 6.2173 32.0126 6.0403 33.0347 6.0403ZM43.0071 0.001C43.5683 0.003 44.0242 0.441 44.0252 0.978V8.025L44.41 7.648C44.905 7.162 45.4742 6.766 46.1025 6.472C46.7238 6.181 47.4664 6.034 48.3101 6.034C48.9916 6.034 49.6299 6.182 50.2101 6.475C50.7893 6.769 51.2973 7.206 51.7192 7.774C52.1461 8.35 52.4878 9.068 52.7323 9.908C52.9788 10.753 53.1031 11.732 53.1031 12.816C53.1031 13.826 52.9608 14.77 52.6802 15.623C52.4016 16.473 52.0058 17.22 51.5048 17.844C51.0067 18.464 50.4025 18.954 49.71 19.303C49.0196 19.649 48.4645 19.825 47.4012 19.825C46.338 19.825 45.3249 19.579 44.0252 18.11V19.612H40.3385V0L43.0071 0.001ZM82.3547 6.2791C82.8176 6.2791 83.2155 6.5831 83.3367 6.9941L86.2007 15.3671L89.2049 6.9201C89.3502 6.5481 89.727 6.2791 90.1629 6.2791H93.067L87.8752 19.6171H84.421L79.2582 6.2791H82.3547ZM16.5126 6.2791C16.9765 6.2791 17.3734 6.5831 17.4956 6.9941L20.3596 15.3671L23.3638 6.9201C23.5081 6.5481 23.8859 6.2791 24.3218 6.2791H27.2249L22.0341 19.6171H18.5789L13.4171 6.2791H16.5126ZM9.1801 0C9.54987 0 10.068 0.026 10.2774 0.053C10.7694 0.114 11.1783 0.514 11.1783 1.016L11.1773 2.41131L11.1773 2.43H10.4087C8.52574 2.43 7.4505 2.666 6.5356 3.325C5.59507 4.003 5.51298 5.34369 5.50872 6.00889L5.50947 6.279H11.6372C12.1914 6.279 12.6493 6.71 12.6583 7.24L12.6593 19.617H8.97267V8.652H5.64274V19.617H1.95607V8.651L0.982044 8.652C0.431899 8.631 0 8.2 0 7.674V6.279H1.95607C1.95607 5.192 1.95607 3.263 3.65761 1.724C5.35915 0.185 7.91146 0 9.1801 0ZM46.8681 8.692C45.7368 8.692 44.9942 9.151 44.6315 9.492C44.2687 9.832 44.0252 10.142 44.0252 10.142V16.172C44.0252 16.172 44.7748 17.244 46.4142 17.244C46.9854 17.244 49.2832 17.167 49.2832 12.822C49.2832 9.798 48.3061 8.692 46.8681 8.692ZM99.0857 8.4393C98.2339 8.4393 97.5505 8.6833 97.0685 9.1793C96.2728 9.9983 96.0955 11.3113 96.0955 11.5023H101.741L101.741 11.3164C101.738 11.0475 101.719 10.6184 101.607 10.2583C101.494 9.8963 101.361 9.6123 101.153 9.3453C100.941 9.0753 100.66 8.8543 100.319 8.6893C99.9775 8.5233 99.5627 8.4393 99.0857 8.4393ZM33.1149 8.4393C32.2641 8.4393 31.5807 8.6833 31.0987 9.1793C30.3031 9.9983 30.1257 11.3113 30.1257 11.5023H35.7714C35.7714 11.2983 35.7805 10.7213 35.6362 10.2583C35.5239 9.8963 35.3917 9.6123 35.1822 9.3453C34.9708 9.0753 34.6902 8.8543 34.3485 8.6893C34.0068 8.5233 33.5919 8.4393 33.1149 8.4393Z" fill="#231F20"/>
</svg>
